<svg width="1437" height="748" viewBox="0 0 1437 748" fill="none" xmlns="http://www.w3.org/2000/svg">
<path d="M21.991 446.726C34.5693 196.232 459.062 394.57 536.367 519.197C676.428 517.089 790.967 525.642 793.633 583.683C797.001 657.018 597.682 832.166 547.708 546.464C546.222 537.973 542.326 528.804 536.367 519.197C308.351 522.628 12.6974 554.314 21.991 446.726Z" fill="#0038FF"/>
<path d="M1437 328.713C1437 384.266 1421.34 438.571 1391.99 484.762C1362.64 530.953 1320.92 566.954 1272.12 588.213C1223.31 609.473 1169.61 615.035 1117.8 604.197C1065.99 593.359 1018.39 566.608 981.04 527.326C943.686 488.044 918.248 437.996 907.942 383.51C897.636 329.024 902.925 272.548 923.141 221.224C943.357 169.9 977.591 126.032 1021.51 95.1681C1065.44 64.3045 1117.08 47.8311 1169.9 47.8311L1169.9 328.713H1437Z" fill="#8186FF"/>
<path d="M1089.34 174.024L1163.3 383.499L1363.15 461.012L1163.3 538.525L1089.34 748L1015.39 538.525L815.536 461.012L1015.39 383.499L1089.34 174.024Z" fill="#FF5FD2"/>
<path d="M527.383 204.998C512.05 -155.083 840.053 36.2208 908.435 197.327C1010.06 164.079 1094.17 151.551 1101.78 233.779C1111.39 337.675 983.596 630.583 919.345 233.779C917.435 221.986 913.707 209.746 908.435 197.327C742.995 251.454 531.14 360.494 527.383 204.998Z" fill="#00D1FF"/>
<ellipse cx="768.063" cy="526.144" rx="243.119" ry="102.786" fill="#850088"/>
</svg>
