<svg width="40" height="40" viewBox="0 0 40 40" fill="none" xmlns="http://www.w3.org/2000/svg">
<g clip-path="url(#clip0_179_4)">
<path d="M15.2 0.584318L15.65 2.40293C13.8798 2.83824 12.1856 3.53882 10.625 4.48089L9.66249 2.87477C11.3823 1.83651 13.2492 1.0643 15.2 0.584318ZM24.8 0.584318L24.35 2.40293C26.1202 2.83824 27.8144 3.53882 29.375 4.48089L30.3438 2.87477C28.622 1.83593 26.7529 1.0637 24.8 0.584318ZM2.87499 9.66174C1.83665 11.3814 1.06438 13.2482 0.584364 15.1988L2.40311 15.6488C2.83846 13.8787 3.5391 12.1847 4.48124 10.6242L2.87499 9.66174ZM1.87499 19.9984C1.87439 19.0895 1.94229 18.1818 2.07811 17.283L0.224989 17.0018C-0.0749962 18.9883 -0.0749962 21.0086 0.224989 22.9951L2.07811 22.7139C1.94229 21.8151 1.87439 20.9074 1.87499 19.9984ZM30.3375 37.1221L29.375 35.516C27.8163 36.4575 26.1243 37.158 24.3563 37.5939L24.8063 39.4126C26.7548 38.932 28.6196 38.1598 30.3375 37.1221ZM38.125 19.9984C38.1256 20.9074 38.0577 21.8151 37.9219 22.7139L39.775 22.9951C40.075 21.0086 40.075 18.9883 39.775 17.0018L37.9219 17.283C38.0577 18.1818 38.1256 19.0895 38.125 19.9984ZM39.4156 24.7981L37.5969 24.3481C37.1615 26.1182 36.4609 27.8122 35.5188 29.3727L37.125 30.3414C38.1639 28.6198 38.9362 26.7508 39.4156 24.7981ZM22.7156 37.922C20.9153 38.1929 19.0847 38.1929 17.2844 37.922L17.0031 39.775C18.9898 40.075 21.0102 40.075 22.9969 39.775L22.7156 37.922ZM34.5906 30.7507C33.5096 32.2147 32.215 33.5082 30.75 34.5879L31.8625 36.0972C33.4786 34.9091 34.907 33.4849 36.1 31.8725L34.5906 30.7507ZM30.75 5.40894C32.2152 6.48965 33.5098 7.78419 34.5906 9.24927L36.1 8.12436C34.9108 6.51285 33.4866 5.08878 31.875 3.89969L30.75 5.40894ZM5.40937 9.24927C6.49016 7.78419 7.7848 6.48965 9.24999 5.40894L8.12499 3.89969C6.51335 5.08878 5.08918 6.51285 3.89999 8.12436L5.40937 9.24927ZM37.125 9.66174L35.5188 10.6242C36.4603 12.1827 37.1609 13.8746 37.5969 15.6425L39.4156 15.1926C38.935 13.2441 38.1628 11.3795 37.125 9.66174ZM17.2844 2.07795C19.0847 1.80712 20.9153 1.80712 22.7156 2.07795L22.9969 0.224971C21.0102 -0.0749903 18.9898 -0.0749903 17.0031 0.224971L17.2844 2.07795ZM6.37187 36.594L2.49999 37.4971L3.40312 33.6255L1.57811 33.1974L0.674989 37.069C0.527095 37.7005 0.71612 38.3636 1.17478 38.8222C1.63343 39.2808 2.29656 39.4698 2.92812 39.3219L6.79687 38.4345L6.37187 36.594ZM1.96874 31.5257L3.79374 31.9506L4.41874 29.2665C3.50776 27.7355 2.82851 26.0781 2.40311 24.3481L0.584364 24.7981C0.992084 26.455 1.61178 28.0524 2.42811 29.5508L1.96874 31.5257ZM10.7187 35.5879L8.03437 36.2128L8.45937 38.0377L10.4344 37.5783C11.9329 38.3946 13.5305 39.0142 15.1875 39.4219L15.6375 37.6033C13.911 37.1729 12.2577 36.4895 10.7312 35.5754L10.7187 35.5879ZM20 3.74969C14.0869 3.75276 8.64226 6.96728 5.7836 12.143C2.92495 17.3187 3.10357 23.6386 6.24999 28.6446L4.68749 35.3098L11.3531 33.7474C17.1997 37.4295 24.7355 37.012 30.1395 32.7067C35.5435 28.4013 37.6338 21.1497 35.3505 14.6289C33.0671 8.108 26.9096 3.74401 20 3.74969Z" fill="#4A52FF"/>
</g>
<defs>
<clipPath id="clip0_179_4">
<rect width="40" height="40" fill="white"/>
</clipPath>
</defs>
</svg>
